<svg width="100" height="100" viewBox="0 0 100 100" fill="none" xmlns="http://www.w3.org/2000/svg">
<rect width="100" height="100" rx="12" fill="#151516"/>
<path d="M28.6908 63.56C41.8428 64.28 50.7468 64.64 55.4028 64.64C56.5068 64.64 57.3708 64.328 57.9948 63.704C58.6668 63.032 59.0028 62.144 59.0028 61.04V54.56H42.4428C37.4028 54.56 33.7308 53.432 31.4268 51.176C29.1708 48.872 28.0428 45.2 28.0428 40.16V38C28.0428 32.96 29.1708 29.312 31.4268 27.056C33.7308 24.752 37.4028 23.6 42.4428 23.6L67.7148 23.6V33.68L45.3228 33.68C42.4428 33.68 41.0028 35.12 41.0028 38V39.44C41.0028 42.32 42.4428 43.76 45.3228 43.76H58.2828C62.9868 43.76 66.4428 44.864 68.6508 47.072C70.8588 49.28 71.9628 52.736 71.9628 57.44V61.04C71.9628 65.744 70.8588 69.2 68.6508 71.408C66.4428 73.616 62.9868 74.72 58.2828 74.72C55.8348 74.72 53.2428 74.672 50.5068 74.576L43.8828 74.288C38.9868 74.048 33.9228 73.712 28.6908 73.28L28.6908 63.56Z" fill="white"/>
</svg>
