<svg width="42" height="42" viewBox="0 0 42 42" fill="none" xmlns="http://www.w3.org/2000/svg">
<g id="material-symbols:error-outline" opacity="0.8">
<path id="Vector" d="M21 29.75C21.4958 29.75 21.9118 29.582 22.2478 29.246C22.5837 28.91 22.7512 28.4947 22.75 28C22.75 27.5042 22.582 27.0882 22.246 26.7522C21.91 26.4163 21.4947 26.2488 21 26.25C20.5042 26.25 20.0882 26.418 19.7522 26.754C19.4162 27.09 19.2488 27.5053 19.25 28C19.25 28.4958 19.418 28.9117 19.754 29.2477C20.09 29.5837 20.5053 29.7512 21 29.75ZM19.25 22.75H22.75V12.25H19.25V22.75ZM21 38.5C18.5792 38.5 16.3042 38.0403 14.175 37.121C12.0458 36.2017 10.1938 34.9551 8.61875 33.3813C7.04375 31.8063 5.79717 29.9542 4.879 27.825C3.96083 25.6958 3.50117 23.4208 3.5 21C3.5 18.5792 3.95967 16.3042 4.879 14.175C5.79833 12.0458 7.04492 10.1938 8.61875 8.61875C10.1938 7.04375 12.0458 5.79717 14.175 4.879C16.3042 3.96083 18.5792 3.50117 21 3.5C23.4208 3.5 25.6958 3.95967 27.825 4.879C29.9542 5.79833 31.8063 7.04492 33.3813 8.61875C34.9563 10.1938 36.2034 12.0458 37.1227 14.175C38.0421 16.3042 38.5012 18.5792 38.5 21C38.5 23.4208 38.0403 25.6958 37.121 27.825C36.2017 29.9542 34.9551 31.8063 33.3813 33.3813C31.8063 34.9563 29.9542 36.2034 27.825 37.1227C25.6958 38.0421 23.4208 38.5012 21 38.5ZM21 35C24.9083 35 28.2187 33.6437 30.9312 30.9312C33.6437 28.2187 35 24.9083 35 21C35 17.0917 33.6437 13.7812 30.9312 11.0687C28.2187 8.35625 24.9083 7 21 7C17.0917 7 13.7812 8.35625 11.0687 11.0687C8.35625 13.7812 7 17.0917 7 21C7 24.9083 8.35625 28.2187 11.0687 30.9312C13.7812 33.6437 17.0917 35 21 35Z" fill="white"/>
</g>
</svg>
