<svg width="1825" height="1140" viewBox="0 0 1825 1140" fill="none" xmlns="http://www.w3.org/2000/svg">
<path opacity="0.0135135" d="M1123.27 121.922C1084.86 196.474 1052.31 338.679 1229.4 311.082C1406.5 283.486 1379.92 376.814 1344.49 426.928C1299.92 519.463 1265.87 700.604 1486.28 684.889C1706.69 669.174 1747.48 531.76 1740.32 465.018" stroke="url(#paint0_linear_524_490)"/>
<path opacity="0.027027" d="M1109.09 127.201C1070.68 201.753 1038.13 343.958 1215.22 316.362C1392.31 288.765 1365.73 382.093 1330.31 432.207C1285.73 524.742 1251.69 705.884 1472.1 690.168C1692.51 674.453 1733.29 537.04 1726.14 470.297" stroke="url(#paint1_linear_524_490)"/>
<path opacity="0.0405405" d="M1094.91 132.482C1056.5 207.034 1023.95 349.239 1201.04 321.642C1378.13 294.045 1351.55 387.374 1316.12 437.487C1271.55 530.022 1237.51 711.164 1457.92 695.449C1678.33 679.733 1719.11 542.32 1711.95 475.577" stroke="url(#paint2_linear_524_490)"/>
<path opacity="0.0540541" d="M1080.72 137.761C1042.31 212.313 1009.77 354.518 1186.86 326.921C1363.95 299.325 1337.37 392.653 1301.94 442.766C1257.37 535.302 1223.33 716.443 1443.74 700.728C1664.15 685.013 1704.93 547.599 1697.77 480.857" stroke="url(#paint3_linear_524_490)"/>
<path opacity="0.0675676" d="M1066.54 143.04C1028.13 217.592 995.585 359.797 1172.68 332.201C1349.77 304.604 1323.19 397.932 1287.76 448.046C1243.19 540.581 1209.15 721.722 1429.56 706.007C1649.97 690.292 1690.75 552.878 1683.59 486.136" stroke="url(#paint4_linear_524_490)"/>
<path opacity="0.0810811" d="M1052.36 148.319C1013.95 222.872 981.402 365.077 1158.49 337.48C1335.59 309.883 1309.01 403.211 1273.58 453.325C1229.01 545.86 1194.96 727.002 1415.37 711.286C1635.78 695.571 1676.57 558.158 1669.41 491.415" stroke="url(#paint5_linear_524_490)"/>
<path opacity="0.0945946" d="M1038.18 153.6C999.768 228.152 967.22 370.357 1144.31 342.76C1321.4 315.164 1294.82 408.492 1259.4 458.605C1214.82 551.14 1180.78 732.282 1401.19 716.567C1621.6 700.852 1662.39 563.438 1655.23 496.696" stroke="url(#paint6_linear_524_490)"/>
<path opacity="0.108108" d="M1024 158.879C985.586 233.431 953.039 375.636 1130.13 348.04C1307.22 320.443 1280.64 413.771 1245.22 463.885C1200.64 556.42 1166.6 737.561 1387.01 721.846C1607.42 706.131 1648.2 568.717 1641.04 501.975" stroke="url(#paint7_linear_524_490)"/>
<path opacity="0.121622" d="M1009.81 164.158C971.404 238.71 938.857 380.915 1115.95 353.319C1293.04 325.722 1266.46 419.05 1231.03 469.164C1186.46 561.699 1152.42 742.841 1372.83 727.125C1593.24 711.41 1634.02 573.997 1626.86 507.254" stroke="url(#paint8_linear_524_490)"/>
<path opacity="0.135135" d="M995.633 169.439C957.222 243.991 924.675 386.196 1101.77 358.599C1278.86 331.002 1252.28 424.331 1216.85 474.444C1172.28 566.979 1138.24 748.121 1358.65 732.406C1579.06 716.69 1619.84 579.277 1612.68 512.534" stroke="url(#paint9_linear_524_490)"/>
<path opacity="0.148649" d="M981.45 174.718C943.04 249.27 910.493 391.475 1087.58 363.878C1264.68 336.282 1238.1 429.61 1202.67 479.724C1158.1 572.259 1124.05 753.4 1344.46 737.685C1564.87 721.97 1605.66 584.556 1598.5 517.814" stroke="url(#paint10_linear_524_490)"/>
<path opacity="0.162162" d="M967.269 179.997C928.859 254.549 896.311 396.754 1073.4 369.158C1250.5 341.561 1223.91 434.889 1188.49 485.003C1143.92 577.538 1109.87 758.679 1330.28 742.964C1550.69 727.249 1591.48 589.835 1584.32 523.093" stroke="url(#paint11_linear_524_490)"/>
<path opacity="0.175676" d="M953.087 185.276C914.676 259.829 882.129 402.034 1059.22 374.437C1236.31 346.84 1209.73 440.168 1174.31 490.282C1129.73 582.817 1095.69 763.959 1316.1 748.243C1536.51 732.528 1577.29 595.115 1570.13 528.372" stroke="url(#paint12_linear_524_490)"/>
<path opacity="0.189189" d="M938.905 190.557C900.495 265.109 867.947 407.314 1045.04 379.717C1222.13 352.121 1195.55 445.449 1160.12 495.562C1115.55 588.098 1081.51 769.239 1301.92 753.524C1522.33 737.809 1563.11 600.395 1555.95 533.653" stroke="url(#paint13_linear_524_490)"/>
<path opacity="0.202703" d="M924.723 195.836C886.313 270.388 853.765 412.593 1030.86 384.997C1207.95 357.4 1181.37 450.728 1145.94 500.842C1101.37 593.377 1067.33 774.518 1287.74 758.803C1508.15 743.088 1548.93 605.674 1541.77 538.932" stroke="url(#paint14_linear_524_490)"/>
<path opacity="0.216216" d="M910.541 201.115C872.131 275.667 839.584 417.872 1016.68 390.276C1193.77 362.679 1167.19 456.007 1131.76 506.121C1087.19 598.656 1053.15 779.798 1273.56 764.082C1493.97 748.367 1534.75 610.954 1527.59 544.211" stroke="url(#paint15_linear_524_490)"/>
<path opacity="0.22973" d="M896.359 206.396C857.949 280.948 825.401 423.153 1002.49 395.556C1179.59 367.96 1153 461.288 1117.58 511.401C1073.01 603.936 1038.96 785.078 1259.37 769.363C1479.78 753.647 1520.57 616.234 1513.41 549.491" stroke="url(#paint16_linear_524_490)"/>
<path opacity="0.243243" d="M882.178 211.675C843.767 286.227 811.22 428.432 988.312 400.835C1165.4 373.239 1138.82 466.567 1103.4 516.681C1058.82 609.216 1024.78 790.357 1245.19 774.642C1465.6 758.927 1506.38 621.513 1499.23 554.771" stroke="url(#paint17_linear_524_490)"/>
<path opacity="0.256757" d="M867.995 216.954C829.585 291.506 797.038 433.711 974.13 406.115C1151.22 378.518 1124.64 471.846 1089.21 521.96C1044.64 614.495 1010.6 795.636 1231.01 779.921C1451.42 764.206 1492.2 626.792 1485.04 560.05" stroke="url(#paint18_linear_524_490)"/>
<path opacity="0.27027" d="M853.814 222.233C815.404 296.786 782.856 438.991 959.948 411.394C1137.04 383.797 1110.46 477.126 1075.03 527.239C1030.46 619.774 996.418 800.916 1216.83 785.201C1437.24 769.485 1478.02 632.072 1470.86 565.329" stroke="url(#paint19_linear_524_490)"/>
<path opacity="0.283784" d="M839.632 227.514C801.221 302.066 768.674 444.271 945.766 416.674C1122.86 389.078 1096.28 482.406 1060.85 532.519C1016.28 625.055 982.236 806.196 1202.65 790.481C1423.06 774.766 1463.84 637.352 1456.68 570.61" stroke="url(#paint20_linear_524_490)"/>
<path opacity="0.297297" d="M825.45 232.793C787.04 307.345 754.492 449.55 931.584 421.954C1108.68 394.357 1082.1 487.685 1046.67 537.799C1002.1 630.334 968.054 811.475 1188.46 795.76C1408.87 780.045 1449.66 642.631 1442.5 575.889" stroke="url(#paint21_linear_524_490)"/>
<path opacity="0.310811" d="M811.268 238.072C772.858 312.624 740.31 454.829 917.402 427.233C1094.49 399.636 1067.91 492.964 1032.49 543.078C987.914 635.613 953.872 816.755 1174.28 801.039C1394.69 785.324 1435.48 647.911 1428.32 581.168" stroke="url(#paint22_linear_524_490)"/>
<path opacity="0.324324" d="M797.086 243.353C758.676 317.905 726.129 460.11 903.221 432.513C1080.31 404.917 1053.73 498.245 1018.3 548.358C973.733 640.893 939.69 822.035 1160.1 806.32C1380.51 790.604 1421.29 653.191 1414.13 586.449" stroke="url(#paint23_linear_524_490)"/>
<path opacity="0.337838" d="M782.904 248.632C744.494 323.184 711.946 465.389 889.039 437.792C1066.13 410.196 1039.55 503.524 1004.12 553.638C959.551 646.173 925.508 827.314 1145.92 811.599C1366.33 795.884 1407.11 658.47 1399.95 591.728" stroke="url(#paint24_linear_524_490)"/>
<path opacity="0.351351" d="M768.722 253.911C730.312 328.463 697.765 470.668 874.857 443.072C1051.95 415.475 1025.37 508.803 989.941 558.917C945.369 651.452 911.327 832.593 1131.74 816.878C1352.15 801.163 1392.93 663.749 1385.77 597.007" stroke="url(#paint25_linear_524_490)"/>
<path opacity="0.364865" d="M754.54 259.19C716.13 333.743 683.583 475.948 860.675 448.351C1037.77 420.754 1011.19 514.083 975.759 564.196C931.187 656.731 897.145 837.873 1117.55 822.158C1337.96 806.442 1378.75 669.029 1371.59 602.286" stroke="url(#paint26_linear_524_490)"/>
<path opacity="0.378378" d="M740.359 264.471C701.948 339.023 669.401 481.228 846.493 453.631C1023.59 426.035 997.004 519.363 961.577 569.476C917.005 662.012 882.963 843.153 1103.37 827.438C1323.78 811.723 1364.57 674.309 1357.41 607.567" stroke="url(#paint27_linear_524_490)"/>
<path opacity="0.391892" d="M726.177 269.75C687.766 344.302 655.219 486.507 832.311 458.911C1009.4 431.314 982.822 524.642 947.395 574.756C902.823 667.291 868.781 848.432 1089.19 832.717C1309.6 817.002 1350.38 679.588 1343.22 612.846" stroke="url(#paint28_linear_524_490)"/>
<path opacity="0.405405" d="M711.995 275.029C673.585 349.581 641.037 491.786 818.129 464.19C995.222 436.593 968.641 529.921 933.214 580.035C888.641 672.57 854.599 853.712 1075.01 837.996C1295.42 822.281 1336.2 684.868 1329.04 618.125" stroke="url(#paint29_linear_524_490)"/>
<path opacity="0.418919" d="M697.813 280.31C659.403 354.862 626.855 497.067 803.947 469.47C981.039 441.874 954.459 535.202 919.032 585.315C874.459 677.85 840.417 858.992 1060.83 843.277C1281.24 827.561 1322.02 690.148 1314.86 623.406" stroke="url(#paint30_linear_524_490)"/>
<path opacity="0.432432" d="M683.631 285.589C645.221 360.141 612.673 502.346 789.766 474.749C966.858 447.153 940.277 540.481 904.85 590.595C860.278 683.13 826.235 864.271 1046.65 848.556C1267.06 832.841 1307.84 695.427 1300.68 628.685" stroke="url(#paint31_linear_524_490)"/>
<path opacity="0.445946" d="M669.449 290.868C631.039 365.42 598.491 507.625 775.583 480.029C952.676 452.432 926.095 545.76 890.668 595.874C846.095 688.409 812.053 869.551 1032.46 853.835C1252.87 838.12 1293.66 700.707 1286.5 633.964" stroke="url(#paint32_linear_524_490)"/>
<path opacity="0.459459" d="M655.267 296.148C616.857 370.7 584.31 512.905 761.402 485.308C938.494 457.711 911.913 551.04 876.486 601.153C831.914 693.688 797.872 874.83 1018.28 859.115C1238.69 843.399 1279.47 705.986 1272.31 639.243" stroke="url(#paint33_linear_524_490)"/>
<path opacity="0.472973" d="M641.085 301.428C602.675 375.98 570.128 518.185 747.22 490.588C924.312 462.992 897.731 556.32 862.304 606.433C817.732 698.969 783.689 880.11 1004.1 864.395C1224.51 848.68 1265.29 711.266 1258.13 644.524" stroke="url(#paint34_linear_524_490)"/>
<path opacity="0.486486" d="M626.904 306.707C588.493 381.259 555.946 523.464 733.038 495.868C910.13 468.271 883.549 561.599 848.122 611.713C803.55 704.248 769.508 885.389 989.918 869.674C1210.33 853.959 1251.11 716.545 1243.95 649.803" stroke="url(#paint35_linear_524_490)"/>
<path opacity="0.5" d="M612.721 311.986C574.311 386.538 541.764 528.744 718.856 501.147C895.948 473.55 869.367 566.878 833.94 616.992C789.368 709.527 755.326 890.669 975.736 874.953C1196.15 859.238 1236.93 721.825 1229.77 655.082" stroke="url(#paint36_linear_524_490)"/>
<path opacity="0.513514" d="M598.54 317.267C560.13 391.819 527.582 534.024 704.674 506.427C881.766 478.831 855.186 572.159 819.759 622.272C775.186 714.807 741.144 895.949 961.554 880.234C1181.96 864.519 1222.75 727.105 1215.59 660.363" stroke="url(#paint37_linear_524_490)"/>
<path opacity="0.527027" d="M584.358 322.546C545.947 397.098 513.4 539.303 690.492 511.707C867.584 484.11 841.003 577.438 805.576 627.552C761.004 720.087 726.962 901.228 947.372 885.513C1167.78 869.798 1208.56 732.384 1201.41 665.642" stroke="url(#paint38_linear_524_490)"/>
<path opacity="0.540541" d="M570.176 327.825C531.766 402.377 499.218 544.582 676.311 516.986C853.403 489.389 826.822 582.717 791.395 632.831C746.822 725.366 712.78 906.508 933.19 890.792C1153.6 875.077 1194.38 737.664 1187.22 670.921" stroke="url(#paint39_linear_524_490)"/>
<path opacity="0.554054" d="M555.994 333.106C517.584 407.658 485.036 549.863 662.128 522.266C839.221 494.669 812.64 587.998 777.213 638.111C732.64 730.646 698.598 911.788 919.008 896.073C1139.42 880.357 1180.2 742.944 1173.04 676.201" stroke="url(#paint40_linear_524_490)"/>
<path opacity="0.567568" d="M541.812 338.385C503.402 412.937 470.854 555.142 647.946 527.545C825.038 499.949 798.458 593.277 763.031 643.391C718.458 735.926 684.416 917.067 904.826 901.352C1125.24 885.637 1166.02 748.223 1158.86 681.481" stroke="url(#paint41_linear_524_490)"/>
<path opacity="0.581081" d="M527.63 343.664C489.22 418.216 456.672 560.421 633.765 532.825C810.857 505.228 784.276 598.556 748.849 648.67C704.277 741.205 670.234 922.346 890.644 906.631C1111.05 890.916 1151.84 753.502 1144.68 686.76" stroke="url(#paint42_linear_524_490)"/>
<path opacity="0.594595" d="M513.448 348.943C475.038 423.496 442.49 565.701 619.583 538.104C796.675 510.507 770.094 603.835 734.667 653.949C690.094 746.484 656.052 927.626 876.462 911.91C1096.87 896.195 1137.66 758.782 1130.5 692.039" stroke="url(#paint43_linear_524_490)"/>
<path opacity="0.608108" d="M499.266 354.224C460.856 428.776 428.309 570.981 605.401 543.384C782.493 515.788 755.912 609.116 720.485 659.229C675.913 751.765 641.871 932.906 862.281 917.191C1082.69 901.476 1123.47 764.062 1116.31 697.32" stroke="url(#paint44_linear_524_490)"/>
<path opacity="0.621622" d="M485.084 359.503C446.674 434.055 414.127 576.26 591.219 548.664C768.311 521.067 741.73 614.395 706.303 664.509C661.731 757.044 627.688 938.185 848.098 922.47C1068.51 906.755 1109.29 769.341 1102.13 702.599" stroke="url(#paint45_linear_524_490)"/>
<path opacity="0.635135" d="M470.903 364.782C432.492 439.334 399.945 581.539 577.037 553.943C754.129 526.346 727.548 619.674 692.121 669.788C647.549 762.323 613.507 943.465 833.917 927.749C1054.33 912.034 1095.11 774.621 1087.95 707.878" stroke="url(#paint46_linear_524_490)"/>
<path opacity="0.648649" d="M456.72 370.063C418.31 444.615 385.763 586.82 562.855 559.223C739.947 531.627 713.366 624.955 677.939 675.068C633.367 767.603 599.325 948.745 819.735 933.03C1040.14 917.314 1080.93 779.901 1073.77 713.158" stroke="url(#paint47_linear_524_490)"/>
<path opacity="0.662162" d="M442.539 375.342C404.129 449.894 371.581 592.099 548.673 564.502C725.765 536.906 699.185 630.234 663.758 680.348C619.185 772.883 585.143 954.024 805.553 938.309C1025.96 922.594 1066.75 785.18 1059.59 718.438" stroke="url(#paint48_linear_524_490)"/>
<path opacity="0.675676" d="M428.357 380.621C389.946 455.173 357.399 597.378 534.491 569.782C711.583 542.185 685.002 635.513 649.575 685.627C605.003 778.162 570.961 959.303 791.371 943.588C1011.78 927.873 1052.56 790.459 1045.4 723.717" stroke="url(#paint49_linear_524_490)"/>
<path opacity="0.689189" d="M414.175 385.9C375.765 460.453 343.217 602.658 520.31 575.061C697.402 547.464 670.821 640.793 635.394 690.906C590.822 783.441 556.779 964.583 777.189 948.868C997.599 933.152 1038.38 795.739 1031.22 728.996" stroke="url(#paint50_linear_524_490)"/>
<path opacity="0.702703" d="M399.993 391.181C361.583 465.733 329.035 607.938 506.127 580.341C683.22 552.745 656.639 646.073 621.212 696.186C576.639 788.722 542.597 969.863 763.007 954.148C983.417 938.433 1024.2 801.019 1017.04 734.277" stroke="url(#paint51_linear_524_490)"/>
<path opacity="0.716216" d="M385.811 396.46C347.401 471.012 314.854 613.217 491.946 585.621C669.038 558.024 642.457 651.352 607.03 701.466C562.458 794.001 528.416 975.142 748.825 959.427C969.235 943.712 1010.02 806.298 1002.86 739.556" stroke="url(#paint52_linear_524_490)"/>
<path opacity="0.72973" d="M371.629 401.739C333.219 476.291 300.672 618.496 477.764 590.9C654.856 563.303 628.275 656.631 592.848 706.745C548.276 799.28 514.233 980.422 734.643 964.706C955.053 948.991 995.836 811.578 988.677 744.835" stroke="url(#paint53_linear_524_490)"/>
<path opacity="0.743243" d="M357.448 407.02C319.037 481.572 286.49 623.777 463.582 596.18C640.674 568.584 614.093 661.912 578.666 712.025C534.094 804.56 500.052 985.702 720.462 969.987C940.872 954.271 981.655 816.858 974.495 750.116" stroke="url(#paint54_linear_524_490)"/>
<path opacity="0.756757" d="M343.265 412.299C304.855 486.851 272.308 629.056 449.4 601.459C626.492 573.863 599.911 667.191 564.484 717.305C519.912 809.84 485.87 990.981 706.28 975.266C926.69 959.551 967.473 822.137 960.313 755.395" stroke="url(#paint55_linear_524_490)"/>
<path opacity="0.77027" d="M329.084 417.578C290.674 492.13 258.126 634.335 435.218 606.739C612.31 579.142 585.73 672.47 550.303 722.584C505.73 815.119 471.688 996.26 692.098 980.545C912.508 964.83 953.291 827.416 946.131 760.674" stroke="url(#paint56_linear_524_490)"/>
<path opacity="0.783784" d="M314.902 422.857C276.491 497.41 243.944 639.615 421.036 612.018C598.128 584.421 571.547 677.75 536.12 727.863C491.548 820.398 457.506 1001.54 677.916 985.825C898.326 970.109 939.109 832.696 931.949 765.953" stroke="url(#paint57_linear_524_490)"/>
<path opacity="0.797297" d="M300.72 428.138C262.31 502.69 229.762 644.895 406.854 617.298C583.947 589.702 557.366 683.03 521.939 733.143C477.366 825.679 443.324 1006.82 663.734 991.105C884.144 975.39 924.927 837.976 917.768 771.234" stroke="url(#paint58_linear_524_490)"/>
<path opacity="0.810811" d="M286.538 433.417C248.128 507.969 215.58 650.174 392.672 622.578C569.765 594.981 543.184 688.309 507.757 738.423C463.184 830.958 429.142 1012.1 649.552 996.384C869.962 980.669 910.745 843.255 903.585 776.513" stroke="url(#paint59_linear_524_490)"/>
<path opacity="0.824324" d="M272.356 438.696C233.946 513.248 201.399 655.453 378.491 627.857C555.583 600.26 529.002 693.588 493.575 743.702C449.003 836.237 414.96 1017.38 635.37 1001.66C855.78 985.948 896.563 848.535 889.404 781.792" stroke="url(#paint60_linear_524_490)"/>
<path opacity="0.837838" d="M258.174 443.977C219.764 518.529 187.216 660.734 364.309 633.137C541.401 605.541 514.82 698.869 479.393 748.982C434.821 841.517 400.778 1022.66 621.188 1006.94C841.598 991.228 882.381 853.815 875.222 787.073" stroke="url(#paint61_linear_524_490)"/>
<path opacity="0.851351" d="M243.992 449.256C205.582 523.808 173.035 666.013 350.127 638.416C527.219 610.82 500.638 704.148 465.211 754.262C420.639 846.797 386.597 1027.94 607.007 1012.22C827.417 996.508 868.2 859.094 861.04 792.352" stroke="url(#paint62_linear_524_490)"/>
<path opacity="0.864865" d="M229.81 454.535C191.4 529.087 158.853 671.292 335.945 643.696C513.037 616.099 486.456 709.427 451.029 759.541C406.457 852.076 372.415 1033.22 592.825 1017.5C813.234 1001.79 854.018 864.374 846.858 797.631" stroke="url(#paint63_linear_524_490)"/>
<path opacity="0.878378" d="M215.629 459.815C177.218 534.367 144.671 676.572 321.763 648.975C498.855 621.378 472.274 714.707 436.847 764.82C392.275 857.355 358.233 1038.5 578.643 1022.78C799.053 1007.07 839.836 869.653 832.676 802.91" stroke="url(#paint64_linear_524_490)"/>
<path opacity="0.891892" d="M201.447 465.095C163.036 539.647 130.489 681.852 307.581 654.255C484.673 626.659 458.092 719.987 422.665 770.1C378.093 862.636 344.051 1043.78 564.461 1028.06C784.871 1012.35 825.654 874.933 818.494 808.191" stroke="url(#paint65_linear_524_490)"/>
<path opacity="0.905405" d="M187.265 470.374C148.855 544.926 116.307 687.131 293.399 659.535C470.492 631.938 443.911 725.266 408.484 775.38C363.911 867.915 329.869 1049.06 550.279 1033.34C770.689 1017.63 811.472 880.212 804.312 813.47" stroke="url(#paint66_linear_524_490)"/>
<path opacity="0.918919" d="M173.083 475.653C134.673 550.205 102.125 692.411 279.217 664.814C456.309 637.217 429.729 730.545 394.302 780.659C349.729 873.194 315.687 1054.34 536.097 1038.62C756.507 1022.91 797.29 885.492 790.13 818.749" stroke="url(#paint67_linear_524_490)"/>
<path opacity="0.932432" d="M158.901 480.934C120.491 555.486 87.9435 697.691 265.036 670.094C442.128 642.498 415.547 735.826 380.12 785.939C335.548 878.474 301.505 1059.62 521.915 1043.9C742.325 1028.19 783.108 890.772 775.949 824.03" stroke="url(#paint68_linear_524_490)"/>
<path opacity="0.945946" d="M144.719 486.213C106.309 560.765 73.7614 702.97 250.854 675.373C427.946 647.777 401.365 741.105 365.938 791.219C321.365 883.754 287.323 1064.9 507.733 1049.18C728.143 1033.46 768.926 896.051 761.767 829.309" stroke="url(#paint69_linear_524_490)"/>
<path opacity="0.959459" d="M130.537 491.492C92.1271 566.044 59.5797 708.249 236.672 680.653C413.764 653.056 387.183 746.384 351.756 796.498C307.184 889.033 273.142 1070.17 493.552 1054.46C713.962 1038.74 754.745 901.331 747.585 834.588" stroke="url(#paint70_linear_524_490)"/>
<path opacity="0.972973" d="M116.355 496.772C77.945 571.324 45.3976 713.529 222.49 685.932C399.582 658.335 373.001 751.664 337.574 801.777C293.002 894.312 258.959 1075.45 479.369 1059.74C699.779 1044.02 740.562 906.61 733.403 839.867" stroke="url(#paint71_linear_524_490)"/>
<path opacity="0.986486" d="M102.174 502.052C63.7634 576.604 31.2159 718.809 208.308 691.212C385.4 663.616 358.819 756.944 323.392 807.058C278.82 899.593 244.778 1080.73 465.188 1065.02C685.598 1049.3 726.381 911.89 719.221 845.148" stroke="url(#paint72_linear_524_490)"/>
<path d="M87.9915 507.331C49.5812 581.883 17.0338 724.088 194.126 696.492C371.218 668.895 344.637 762.223 309.21 812.337C264.638 904.872 230.596 1086.01 451.006 1070.3C671.416 1054.58 712.199 917.169 705.039 850.427" stroke="url(#paint73_linear_524_490)"/>
<line x1="1824" y1="327.5" x2="195.999" y2="311.333" stroke="url(#paint74_linear_524_490)"/>
<line x1="1824.09" y1="158.492" x2="345.091" y2="432.492" stroke="url(#paint75_linear_524_490)"/>
<defs>
<linearGradient id="paint0_linear_524_490" x1="1492.87" y1="689.165" x2="1351.9" y2="69.8769" gradientUnits="userSpaceOnUse">
<stop stop-color="#335353"/>
<stop offset="1" stop-color="#436060" stop-opacity="0.3"/>
</linearGradient>
<linearGradient id="paint1_linear_524_490" x1="1478.69" y1="694.445" x2="1337.71" y2="75.1562" gradientUnits="userSpaceOnUse">
<stop stop-color="#335353"/>
<stop offset="1" stop-color="#436060" stop-opacity="0.3"/>
</linearGradient>
<linearGradient id="paint2_linear_524_490" x1="1464.51" y1="699.725" x2="1323.53" y2="80.4365" gradientUnits="userSpaceOnUse">
<stop stop-color="#335353"/>
<stop offset="1" stop-color="#436060" stop-opacity="0.3"/>
</linearGradient>
<linearGradient id="paint3_linear_524_490" x1="1450.33" y1="705.004" x2="1309.35" y2="85.7158" gradientUnits="userSpaceOnUse">
<stop stop-color="#335353"/>
<stop offset="1" stop-color="#436060" stop-opacity="0.3"/>
</linearGradient>
<linearGradient id="paint4_linear_524_490" x1="1436.14" y1="710.283" x2="1295.17" y2="90.9951" gradientUnits="userSpaceOnUse">
<stop stop-color="#335353"/>
<stop offset="1" stop-color="#436060" stop-opacity="0.3"/>
</linearGradient>
<linearGradient id="paint5_linear_524_490" x1="1421.96" y1="715.563" x2="1280.99" y2="96.2744" gradientUnits="userSpaceOnUse">
<stop stop-color="#335353"/>
<stop offset="1" stop-color="#436060" stop-opacity="0.3"/>
</linearGradient>
<linearGradient id="paint6_linear_524_490" x1="1407.78" y1="720.843" x2="1266.8" y2="101.555" gradientUnits="userSpaceOnUse">
<stop stop-color="#335353"/>
<stop offset="1" stop-color="#436060" stop-opacity="0.3"/>
</linearGradient>
<linearGradient id="paint7_linear_524_490" x1="1393.6" y1="726.122" x2="1252.62" y2="106.834" gradientUnits="userSpaceOnUse">
<stop stop-color="#335353"/>
<stop offset="1" stop-color="#436060" stop-opacity="0.3"/>
</linearGradient>
<linearGradient id="paint8_linear_524_490" x1="1379.42" y1="731.402" x2="1238.44" y2="112.113" gradientUnits="userSpaceOnUse">
<stop stop-color="#335353"/>
<stop offset="1" stop-color="#436060" stop-opacity="0.3"/>
</linearGradient>
<linearGradient id="paint9_linear_524_490" x1="1365.23" y1="736.682" x2="1224.26" y2="117.394" gradientUnits="userSpaceOnUse">
<stop stop-color="#335353"/>
<stop offset="1" stop-color="#436060" stop-opacity="0.3"/>
</linearGradient>
<linearGradient id="paint10_linear_524_490" x1="1351.05" y1="741.961" x2="1210.08" y2="122.673" gradientUnits="userSpaceOnUse">
<stop stop-color="#335353"/>
<stop offset="1" stop-color="#436060" stop-opacity="0.3"/>
</linearGradient>
<linearGradient id="paint11_linear_524_490" x1="1336.87" y1="747.241" x2="1195.89" y2="127.952" gradientUnits="userSpaceOnUse">
<stop stop-color="#335353"/>
<stop offset="1" stop-color="#436060" stop-opacity="0.3"/>
</linearGradient>
<linearGradient id="paint12_linear_524_490" x1="1322.69" y1="752.52" x2="1181.71" y2="133.231" gradientUnits="userSpaceOnUse">
<stop stop-color="#335353"/>
<stop offset="1" stop-color="#436060" stop-opacity="0.3"/>
</linearGradient>
<linearGradient id="paint13_linear_524_490" x1="1308.51" y1="757.8" x2="1167.53" y2="138.512" gradientUnits="userSpaceOnUse">
<stop stop-color="#335353"/>
<stop offset="1" stop-color="#436060" stop-opacity="0.3"/>
</linearGradient>
<linearGradient id="paint14_linear_524_490" x1="1294.33" y1="763.079" x2="1153.35" y2="143.791" gradientUnits="userSpaceOnUse">
<stop stop-color="#335353"/>
<stop offset="1" stop-color="#436060" stop-opacity="0.3"/>
</linearGradient>
<linearGradient id="paint15_linear_524_490" x1="1280.14" y1="768.359" x2="1139.17" y2="149.07" gradientUnits="userSpaceOnUse">
<stop stop-color="#335353"/>
<stop offset="1" stop-color="#436060" stop-opacity="0.3"/>
</linearGradient>
<linearGradient id="paint16_linear_524_490" x1="1265.96" y1="773.639" x2="1124.98" y2="154.351" gradientUnits="userSpaceOnUse">
<stop stop-color="#335353"/>
<stop offset="1" stop-color="#436060" stop-opacity="0.3"/>
</linearGradient>
<linearGradient id="paint17_linear_524_490" x1="1251.78" y1="778.918" x2="1110.8" y2="159.63" gradientUnits="userSpaceOnUse">
<stop stop-color="#335353"/>
<stop offset="1" stop-color="#436060" stop-opacity="0.3"/>
</linearGradient>
<linearGradient id="paint18_linear_524_490" x1="1237.6" y1="784.198" x2="1096.62" y2="164.909" gradientUnits="userSpaceOnUse">
<stop stop-color="#335353"/>
<stop offset="1" stop-color="#436060" stop-opacity="0.3"/>
</linearGradient>
<linearGradient id="paint19_linear_524_490" x1="1223.42" y1="789.477" x2="1082.44" y2="170.188" gradientUnits="userSpaceOnUse">
<stop stop-color="#335353"/>
<stop offset="1" stop-color="#436060" stop-opacity="0.3"/>
</linearGradient>
<linearGradient id="paint20_linear_524_490" x1="1209.23" y1="794.757" x2="1068.26" y2="175.469" gradientUnits="userSpaceOnUse">
<stop stop-color="#335353"/>
<stop offset="1" stop-color="#436060" stop-opacity="0.3"/>
</linearGradient>
<linearGradient id="paint21_linear_524_490" x1="1195.05" y1="800.036" x2="1054.08" y2="180.748" gradientUnits="userSpaceOnUse">
<stop stop-color="#335353"/>
<stop offset="1" stop-color="#436060" stop-opacity="0.3"/>
</linearGradient>
<linearGradient id="paint22_linear_524_490" x1="1180.87" y1="805.316" x2="1039.89" y2="186.027" gradientUnits="userSpaceOnUse">
<stop stop-color="#335353"/>
<stop offset="1" stop-color="#436060" stop-opacity="0.3"/>
</linearGradient>
<linearGradient id="paint23_linear_524_490" x1="1166.69" y1="810.596" x2="1025.71" y2="191.308" gradientUnits="userSpaceOnUse">
<stop stop-color="#335353"/>
<stop offset="1" stop-color="#436060" stop-opacity="0.3"/>
</linearGradient>
<linearGradient id="paint24_linear_524_490" x1="1152.51" y1="815.875" x2="1011.53" y2="196.587" gradientUnits="userSpaceOnUse">
<stop stop-color="#335353"/>
<stop offset="1" stop-color="#436060" stop-opacity="0.3"/>
</linearGradient>
<linearGradient id="paint25_linear_524_490" x1="1138.32" y1="821.155" x2="997.348" y2="201.866" gradientUnits="userSpaceOnUse">
<stop stop-color="#335353"/>
<stop offset="1" stop-color="#436060" stop-opacity="0.3"/>
</linearGradient>
<linearGradient id="paint26_linear_524_490" x1="1124.14" y1="826.434" x2="983.166" y2="207.146" gradientUnits="userSpaceOnUse">
<stop stop-color="#335353"/>
<stop offset="1" stop-color="#436060" stop-opacity="0.3"/>
</linearGradient>
<linearGradient id="paint27_linear_524_490" x1="1109.96" y1="831.714" x2="968.984" y2="212.426" gradientUnits="userSpaceOnUse">
<stop stop-color="#335353"/>
<stop offset="1" stop-color="#436060" stop-opacity="0.3"/>
</linearGradient>
<linearGradient id="paint28_linear_524_490" x1="1095.78" y1="836.993" x2="954.802" y2="217.705" gradientUnits="userSpaceOnUse">
<stop stop-color="#335353"/>
<stop offset="1" stop-color="#436060" stop-opacity="0.3"/>
</linearGradient>
<linearGradient id="paint29_linear_524_490" x1="1081.6" y1="842.273" x2="940.62" y2="222.984" gradientUnits="userSpaceOnUse">
<stop stop-color="#335353"/>
<stop offset="1" stop-color="#436060" stop-opacity="0.3"/>
</linearGradient>
<linearGradient id="paint30_linear_524_490" x1="1067.41" y1="847.553" x2="926.438" y2="228.265" gradientUnits="userSpaceOnUse">
<stop stop-color="#335353"/>
<stop offset="1" stop-color="#436060" stop-opacity="0.3"/>
</linearGradient>
<linearGradient id="paint31_linear_524_490" x1="1053.23" y1="852.832" x2="912.256" y2="233.544" gradientUnits="userSpaceOnUse">
<stop stop-color="#335353"/>
<stop offset="1" stop-color="#436060" stop-opacity="0.3"/>
</linearGradient>
<linearGradient id="paint32_linear_524_490" x1="1039.05" y1="858.112" x2="898.074" y2="238.823" gradientUnits="userSpaceOnUse">
<stop stop-color="#335353"/>
<stop offset="1" stop-color="#436060" stop-opacity="0.3"/>
</linearGradient>
<linearGradient id="paint33_linear_524_490" x1="1024.87" y1="863.391" x2="883.893" y2="244.103" gradientUnits="userSpaceOnUse">
<stop stop-color="#335353"/>
<stop offset="1" stop-color="#436060" stop-opacity="0.3"/>
</linearGradient>
<linearGradient id="paint34_linear_524_490" x1="1010.69" y1="868.671" x2="869.711" y2="249.383" gradientUnits="userSpaceOnUse">
<stop stop-color="#335353"/>
<stop offset="1" stop-color="#436060" stop-opacity="0.3"/>
</linearGradient>
<linearGradient id="paint35_linear_524_490" x1="996.506" y1="873.95" x2="855.529" y2="254.662" gradientUnits="userSpaceOnUse">
<stop stop-color="#335353"/>
<stop offset="1" stop-color="#436060" stop-opacity="0.3"/>
</linearGradient>
<linearGradient id="paint36_linear_524_490" x1="982.324" y1="879.23" x2="841.347" y2="259.941" gradientUnits="userSpaceOnUse">
<stop stop-color="#335353"/>
<stop offset="1" stop-color="#436060" stop-opacity="0.3"/>
</linearGradient>
<linearGradient id="paint37_linear_524_490" x1="968.142" y1="884.51" x2="827.165" y2="265.222" gradientUnits="userSpaceOnUse">
<stop stop-color="#335353"/>
<stop offset="1" stop-color="#436060" stop-opacity="0.3"/>
</linearGradient>
<linearGradient id="paint38_linear_524_490" x1="953.96" y1="889.789" x2="812.983" y2="270.501" gradientUnits="userSpaceOnUse">
<stop stop-color="#335353"/>
<stop offset="1" stop-color="#436060" stop-opacity="0.3"/>
</linearGradient>
<linearGradient id="paint39_linear_524_490" x1="939.778" y1="895.069" x2="798.801" y2="275.78" gradientUnits="userSpaceOnUse">
<stop stop-color="#335353"/>
<stop offset="1" stop-color="#436060" stop-opacity="0.3"/>
</linearGradient>
<linearGradient id="paint40_linear_524_490" x1="925.596" y1="900.349" x2="784.619" y2="281.061" gradientUnits="userSpaceOnUse">
<stop stop-color="#335353"/>
<stop offset="1" stop-color="#436060" stop-opacity="0.3"/>
</linearGradient>
<linearGradient id="paint41_linear_524_490" x1="911.414" y1="905.628" x2="770.437" y2="286.34" gradientUnits="userSpaceOnUse">
<stop stop-color="#335353"/>
<stop offset="1" stop-color="#436060" stop-opacity="0.3"/>
</linearGradient>
<linearGradient id="paint42_linear_524_490" x1="897.232" y1="910.908" x2="756.255" y2="291.619" gradientUnits="userSpaceOnUse">
<stop stop-color="#335353"/>
<stop offset="1" stop-color="#436060" stop-opacity="0.3"/>
</linearGradient>
<linearGradient id="paint43_linear_524_490" x1="883.05" y1="916.187" x2="742.073" y2="296.898" gradientUnits="userSpaceOnUse">
<stop stop-color="#335353"/>
<stop offset="1" stop-color="#436060" stop-opacity="0.3"/>
</linearGradient>
<linearGradient id="paint44_linear_524_490" x1="868.868" y1="921.467" x2="727.892" y2="302.179" gradientUnits="userSpaceOnUse">
<stop stop-color="#335353"/>
<stop offset="1" stop-color="#436060" stop-opacity="0.3"/>
</linearGradient>
<linearGradient id="paint45_linear_524_490" x1="854.686" y1="926.746" x2="713.71" y2="307.458" gradientUnits="userSpaceOnUse">
<stop stop-color="#335353"/>
<stop offset="1" stop-color="#436060" stop-opacity="0.3"/>
</linearGradient>
<linearGradient id="paint46_linear_524_490" x1="840.505" y1="932.026" x2="699.528" y2="312.737" gradientUnits="userSpaceOnUse">
<stop stop-color="#335353"/>
<stop offset="1" stop-color="#436060" stop-opacity="0.3"/>
</linearGradient>
<linearGradient id="paint47_linear_524_490" x1="826.323" y1="937.306" x2="685.346" y2="318.018" gradientUnits="userSpaceOnUse">
<stop stop-color="#335353"/>
<stop offset="1" stop-color="#436060" stop-opacity="0.3"/>
</linearGradient>
<linearGradient id="paint48_linear_524_490" x1="812.141" y1="942.585" x2="671.164" y2="323.297" gradientUnits="userSpaceOnUse">
<stop stop-color="#335353"/>
<stop offset="1" stop-color="#436060" stop-opacity="0.3"/>
</linearGradient>
<linearGradient id="paint49_linear_524_490" x1="797.959" y1="947.865" x2="656.982" y2="328.576" gradientUnits="userSpaceOnUse">
<stop stop-color="#335353"/>
<stop offset="1" stop-color="#436060" stop-opacity="0.3"/>
</linearGradient>
<linearGradient id="paint50_linear_524_490" x1="783.777" y1="953.144" x2="642.8" y2="333.855" gradientUnits="userSpaceOnUse">
<stop stop-color="#335353"/>
<stop offset="1" stop-color="#436060" stop-opacity="0.3"/>
</linearGradient>
<linearGradient id="paint51_linear_524_490" x1="769.595" y1="958.424" x2="628.618" y2="339.136" gradientUnits="userSpaceOnUse">
<stop stop-color="#335353"/>
<stop offset="1" stop-color="#436060" stop-opacity="0.3"/>
</linearGradient>
<linearGradient id="paint52_linear_524_490" x1="755.413" y1="963.703" x2="614.437" y2="344.415" gradientUnits="userSpaceOnUse">
<stop stop-color="#335353"/>
<stop offset="1" stop-color="#436060" stop-opacity="0.3"/>
</linearGradient>
<linearGradient id="paint53_linear_524_490" x1="741.231" y1="968.983" x2="600.254" y2="349.694" gradientUnits="userSpaceOnUse">
<stop stop-color="#335353"/>
<stop offset="1" stop-color="#436060" stop-opacity="0.3"/>
</linearGradient>
<linearGradient id="paint54_linear_524_490" x1="727.05" y1="974.263" x2="586.073" y2="354.975" gradientUnits="userSpaceOnUse">
<stop stop-color="#335353"/>
<stop offset="1" stop-color="#436060" stop-opacity="0.3"/>
</linearGradient>
<linearGradient id="paint55_linear_524_490" x1="712.867" y1="979.542" x2="571.891" y2="360.254" gradientUnits="userSpaceOnUse">
<stop stop-color="#335353"/>
<stop offset="1" stop-color="#436060" stop-opacity="0.3"/>
</linearGradient>
<linearGradient id="paint56_linear_524_490" x1="698.686" y1="984.822" x2="557.709" y2="365.533" gradientUnits="userSpaceOnUse">
<stop stop-color="#335353"/>
<stop offset="1" stop-color="#436060" stop-opacity="0.3"/>
</linearGradient>
<linearGradient id="paint57_linear_524_490" x1="684.504" y1="990.101" x2="543.527" y2="370.812" gradientUnits="userSpaceOnUse">
<stop stop-color="#335353"/>
<stop offset="1" stop-color="#436060" stop-opacity="0.3"/>
</linearGradient>
<linearGradient id="paint58_linear_524_490" x1="670.322" y1="995.381" x2="529.345" y2="376.093" gradientUnits="userSpaceOnUse">
<stop stop-color="#335353"/>
<stop offset="1" stop-color="#436060" stop-opacity="0.3"/>
</linearGradient>
<linearGradient id="paint59_linear_524_490" x1="656.14" y1="1000.66" x2="515.163" y2="381.372" gradientUnits="userSpaceOnUse">
<stop stop-color="#335353"/>
<stop offset="1" stop-color="#436060" stop-opacity="0.3"/>
</linearGradient>
<linearGradient id="paint60_linear_524_490" x1="641.958" y1="1005.94" x2="500.982" y2="386.651" gradientUnits="userSpaceOnUse">
<stop stop-color="#335353"/>
<stop offset="1" stop-color="#436060" stop-opacity="0.3"/>
</linearGradient>
<linearGradient id="paint61_linear_524_490" x1="627.776" y1="1011.22" x2="486.799" y2="391.932" gradientUnits="userSpaceOnUse">
<stop stop-color="#335353"/>
<stop offset="1" stop-color="#436060" stop-opacity="0.3"/>
</linearGradient>
<linearGradient id="paint62_linear_524_490" x1="613.595" y1="1016.5" x2="472.618" y2="397.211" gradientUnits="userSpaceOnUse">
<stop stop-color="#335353"/>
<stop offset="1" stop-color="#436060" stop-opacity="0.3"/>
</linearGradient>
<linearGradient id="paint63_linear_524_490" x1="599.412" y1="1021.78" x2="458.436" y2="402.49" gradientUnits="userSpaceOnUse">
<stop stop-color="#335353"/>
<stop offset="1" stop-color="#436060" stop-opacity="0.3"/>
</linearGradient>
<linearGradient id="paint64_linear_524_490" x1="585.231" y1="1027.06" x2="444.254" y2="407.77" gradientUnits="userSpaceOnUse">
<stop stop-color="#335353"/>
<stop offset="1" stop-color="#436060" stop-opacity="0.3"/>
</linearGradient>
<linearGradient id="paint65_linear_524_490" x1="571.049" y1="1032.34" x2="430.072" y2="413.05" gradientUnits="userSpaceOnUse">
<stop stop-color="#335353"/>
<stop offset="1" stop-color="#436060" stop-opacity="0.3"/>
</linearGradient>
<linearGradient id="paint66_linear_524_490" x1="556.867" y1="1037.62" x2="415.89" y2="418.329" gradientUnits="userSpaceOnUse">
<stop stop-color="#335353"/>
<stop offset="1" stop-color="#436060" stop-opacity="0.3"/>
</linearGradient>
<linearGradient id="paint67_linear_524_490" x1="542.685" y1="1042.9" x2="401.708" y2="423.608" gradientUnits="userSpaceOnUse">
<stop stop-color="#335353"/>
<stop offset="1" stop-color="#436060" stop-opacity="0.3"/>
</linearGradient>
<linearGradient id="paint68_linear_524_490" x1="528.503" y1="1048.18" x2="387.526" y2="428.889" gradientUnits="userSpaceOnUse">
<stop stop-color="#335353"/>
<stop offset="1" stop-color="#436060" stop-opacity="0.3"/>
</linearGradient>
<linearGradient id="paint69_linear_524_490" x1="514.321" y1="1053.46" x2="373.344" y2="434.168" gradientUnits="userSpaceOnUse">
<stop stop-color="#335353"/>
<stop offset="1" stop-color="#436060" stop-opacity="0.3"/>
</linearGradient>
<linearGradient id="paint70_linear_524_490" x1="500.139" y1="1058.74" x2="359.163" y2="439.447" gradientUnits="userSpaceOnUse">
<stop stop-color="#335353"/>
<stop offset="1" stop-color="#436060" stop-opacity="0.3"/>
</linearGradient>
<linearGradient id="paint71_linear_524_490" x1="485.957" y1="1064.01" x2="344.981" y2="444.727" gradientUnits="userSpaceOnUse">
<stop stop-color="#335353"/>
<stop offset="1" stop-color="#436060" stop-opacity="0.3"/>
</linearGradient>
<linearGradient id="paint72_linear_524_490" x1="471.776" y1="1069.3" x2="330.799" y2="450.007" gradientUnits="userSpaceOnUse">
<stop stop-color="#335353"/>
<stop offset="1" stop-color="#436060" stop-opacity="0.3"/>
</linearGradient>
<linearGradient id="paint73_linear_524_490" x1="457.594" y1="1074.57" x2="316.617" y2="455.286" gradientUnits="userSpaceOnUse">
<stop stop-color="#335353"/>
<stop offset="1" stop-color="#436060" stop-opacity="0.3"/>
</linearGradient>
<linearGradient id="paint74_linear_524_490" x1="1824" y1="327" x2="271.92" y2="305.561" gradientUnits="userSpaceOnUse">
<stop stop-color="#107D7D"/>
<stop offset="1" stop-color="#107D7D" stop-opacity="0"/>
</linearGradient>
<linearGradient id="paint75_linear_524_490" x1="1824" y1="158" x2="412.974" y2="414.177" gradientUnits="userSpaceOnUse">
<stop stop-color="#107D7D"/>
<stop offset="1" stop-color="#107D7D" stop-opacity="0"/>
</linearGradient>
</defs>
</svg>
