<svg width="1344" height="1019" viewBox="0 0 1344 1019" fill="none" xmlns="http://www.w3.org/2000/svg">
<path opacity="0.0185185" d="M1103.91 697.09C1078.91 786.961 1114.42 818.06 1137.65 831.749C1204.44 871.105 1253.11 793.857 1224.23 759.641C1210.44 743.301 1184.9 702.064 1193.05 667.836C1203.24 625.05 1276.53 470.437 1228.31 393.158C1194.9 339.624 1141.33 355.403 1121.15 415.321C1095.93 490.219 1115.55 516.326 1131.01 578.014C1146.8 641.064 1116.08 653.337 1103.91 697.09Z" stroke="url(#paint0_linear_524_403)"/>
<path opacity="0.037037" d="M1088.03 694.573C1060.3 783.391 1094.84 815.89 1117.64 830.497C1183.19 872.497 1234.18 797.241 1206.37 761.892C1193.09 745.011 1168.82 702.779 1178 668.897C1189.49 626.545 1267.46 474.954 1221.62 395.795C1189.86 340.959 1135.84 354.589 1113.85 413.665C1086.36 487.51 1105.17 514.385 1118.74 576.652C1132.6 640.294 1101.53 651.333 1088.03 694.573Z" stroke="url(#paint1_linear_524_403)"/>
<path opacity="0.0555556" d="M1072.16 692.259C1041.74 779.915 1075.27 813.774 1097.61 829.283C1161.83 873.876 1215.09 800.702 1188.37 764.263C1175.61 746.863 1152.65 703.687 1162.86 670.193C1175.63 628.325 1258.17 479.94 1214.77 398.999C1184.71 342.928 1130.31 354.392 1106.53 412.553C1076.81 485.255 1094.79 512.865 1106.45 575.637C1118.36 639.794 1086.97 649.584 1072.16 692.259Z" stroke="url(#paint2_linear_524_403)"/>
<path opacity="0.0740741" d="M1056.29 690.151C1023.22 776.538 1055.69 811.716 1077.55 828.108C1140.38 875.239 1195.83 804.237 1170.24 766.753C1158.02 748.853 1136.39 704.787 1147.62 671.721C1161.65 630.388 1248.67 485.391 1207.77 402.766C1179.43 345.528 1124.71 354.812 1099.17 411.988C1067.25 483.459 1084.38 511.77 1094.12 574.969C1104.07 639.563 1072.4 648.093 1056.29 690.151Z" stroke="url(#paint3_linear_524_403)"/>
<path opacity="0.0925926" d="M1040.43 688.245C1004.74 773.259 1036.12 809.712 1057.46 826.967C1118.82 876.579 1176.41 807.835 1151.97 769.353C1140.3 750.975 1120.03 706.072 1132.26 673.474C1147.55 632.728 1238.93 491.295 1200.57 407.086C1174 348.751 1119.03 355.843 1091.76 411.965C1057.68 482.117 1073.94 511.095 1081.74 574.645C1089.72 639.596 1057.8 646.857 1040.43 688.245Z" stroke="url(#paint4_linear_524_403)"/>
<path opacity="0.111111" d="M1024.56 686.543C986.3 770.079 1016.55 807.764 1037.35 825.861C1097.16 877.893 1156.81 811.491 1133.56 772.056C1122.46 753.224 1103.56 707.538 1116.78 675.449C1133.31 635.338 1228.95 497.641 1193.18 411.951C1168.4 352.591 1113.25 357.483 1084.29 412.481C1048.09 481.229 1063.45 510.839 1069.31 574.661C1075.3 639.892 1043.19 645.874 1024.56 686.543Z" stroke="url(#paint5_linear_524_403)"/>
<path opacity="0.12963" d="M1008.68 685.046C967.894 767.003 996.98 805.873 1017.22 824.79C1075.4 879.179 1137.03 815.201 1115.01 774.861C1104.49 755.597 1086.99 709.184 1101.18 677.642C1118.92 638.216 1218.7 504.423 1185.57 417.357C1162.61 357.042 1107.35 359.729 1076.73 413.537C1038.45 480.797 1052.9 511.003 1056.81 575.02C1060.81 640.45 1028.53 645.145 1008.68 685.046Z" stroke="url(#paint6_linear_524_403)"/>
<path opacity="0.148148" d="M992.777 683.751C949.519 764.029 977.402 804.037 997.049 823.751C1053.54 880.431 1117.09 818.953 1096.3 777.758C1086.38 758.086 1070.31 711.002 1085.45 680.047C1104.38 641.353 1208.18 511.627 1177.72 423.29C1156.62 362.096 1101.3 362.573 1069.06 415.125C1028.76 480.816 1042.28 511.58 1044.24 575.715C1046.24 641.265 1013.84 644.668 992.777 683.751Z" stroke="url(#paint7_linear_524_403)"/>
<path opacity="0.166667" d="M976.852 682.658C931.172 761.159 957.819 802.257 976.852 822.743C1031.58 881.645 1096.96 822.743 1077.45 780.743C1068.13 760.686 1053.51 712.989 1069.58 682.658C1089.68 644.743 1197.37 519.243 1169.63 429.743C1150.4 367.743 1095.11 366.011 1061.28 417.243C1019 481.284 1031.58 512.569 1031.58 576.743C1031.58 642.333 999.09 644.44 976.852 682.658Z" stroke="url(#paint8_linear_524_403)"/>
<path opacity="0.185185" d="M960.896 681.766C912.85 758.395 938.228 800.532 956.624 821.766C1009.52 882.817 1076.66 826.563 1058.44 783.809C1049.74 763.392 1036.58 715.141 1053.57 685.47C1074.81 648.381 1186.27 527.259 1161.26 436.705C1143.94 373.975 1088.73 370.035 1053.37 419.885C1009.16 482.198 1020.77 513.967 1018.82 578.101C1016.82 643.652 984.287 644.459 960.896 681.766Z" stroke="url(#paint9_linear_524_403)"/>
<path opacity="0.203704" d="M944.903 681.073C894.551 755.736 918.627 798.861 936.365 820.817C987.366 883.945 1056.18 830.407 1039.28 786.951C1031.2 766.199 1019.52 717.451 1037.41 688.476C1059.77 652.259 1174.85 535.663 1152.62 444.165C1137.23 380.782 1082.17 374.638 1045.31 423.046C999.226 483.555 1009.86 515.768 1005.95 579.786C1001.95 645.216 969.417 644.724 944.903 681.073Z" stroke="url(#paint10_linear_524_403)"/>
<path opacity="0.222222" d="M928.868 680.579C876.269 753.185 899.016 797.246 916.074 819.897C965.119 885.023 1035.53 834.266 1019.95 790.161C1012.52 769.099 1002.33 719.915 1021.09 691.672C1044.54 656.37 1163.11 544.441 1143.68 452.112C1130.23 388.152 1075.39 379.813 1037.08 426.719C989.18 485.351 998.827 517.969 992.966 581.791C986.975 647.022 954.475 645.231 928.868 680.579Z" stroke="url(#paint11_linear_524_403)"/>
<path opacity="0.240741" d="M912.783 680.28C858.002 750.742 879.392 795.684 895.749 819.002C942.778 886.048 1014.69 838.134 1000.47 793.434C993.682 772.088 985.004 722.527 1004.61 695.051C1029.12 660.706 1151.03 553.582 1134.44 460.533C1122.94 396.075 1068.39 385.551 1028.67 430.897C979.012 487.58 987.658 520.564 979.854 584.113C971.879 649.065 939.453 645.977 912.783 680.28Z" stroke="url(#paint12_linear_524_403)"/>
<path opacity="0.259259" d="M896.644 680.176C839.748 748.406 859.754 794.176 875.39 818.133C920.346 887.016 993.677 842.005 980.829 796.764C974.694 775.159 967.533 725.281 987.967 698.606C1013.51 665.261 1138.61 563.071 1124.86 469.416C1115.34 404.538 1061.14 391.842 1020.06 435.574C968.708 490.239 976.343 523.548 966.607 586.747C956.655 651.34 924.344 646.959 896.644 680.176Z" stroke="url(#paint13_linear_524_403)"/>
<path opacity="0.277778" d="M880.444 680.264C821.502 746.18 840.101 792.72 854.996 817.288C897.825 887.925 972.483 845.869 961.023 800.143C955.55 778.307 949.914 728.173 971.149 702.33C997.694 670.026 1125.83 572.895 1114.95 478.748C1107.41 413.529 1053.64 398.676 1011.25 440.74C958.256 493.321 964.871 526.914 953.213 589.686C941.298 653.842 909.14 648.173 880.444 680.264Z" stroke="url(#paint14_linear_524_403)"/>
<path opacity="0.296296" d="M864.177 680.54C803.261 744.062 820.429 791.317 834.567 816.465C875.215 888.769 951.11 849.721 941.052 803.565C936.248 781.524 932.144 731.195 954.155 706.216C981.668 674.992 1112.69 583.039 1104.68 488.514C1099.14 423.034 1045.85 406.042 1002.2 446.387C947.642 496.819 953.229 530.657 939.664 592.924C925.8 656.566 893.834 649.615 864.177 680.54Z" stroke="url(#paint15_linear_524_403)"/>
<path opacity="0.314815" d="M847.838 681.004C785.023 742.053 800.739 789.965 814.101 815.662C852.52 889.546 929.56 853.554 920.915 807.024C916.786 784.804 914.219 734.343 936.978 710.258C965.426 680.152 1099.17 593.488 1094.05 498.701C1090.51 433.039 1037.77 413.929 992.92 452.506C936.854 500.728 941.406 534.768 925.951 596.456C910.154 659.505 878.42 651.282 847.838 681.004Z" stroke="url(#paint16_linear_524_403)"/>
<path opacity="0.333333" d="M831.422 681.65C766.783 740.154 781.029 788.664 793.599 814.879C829.742 890.253 907.832 857.36 900.611 810.513C897.162 788.142 896.135 737.608 919.615 714.447C948.964 685.496 1085.27 604.227 1083.05 509.294C1081.51 443.53 1029.38 422.325 983.382 459.087C925.881 505.04 929.391 539.241 912.064 600.274C894.355 662.654 862.891 653.168 831.422 681.65Z" stroke="url(#paint17_linear_524_403)"/>
<path opacity="0.351852" d="M814.921 682.476C748.538 738.362 761.296 787.412 773.059 814.113C806.881 890.885 885.927 861.131 880.139 814.024C877.375 791.529 877.889 740.985 902.061 718.776C932.275 691.014 1070.98 615.24 1071.65 520.275C1072.11 454.49 1020.67 431.216 973.575 466.119C914.708 509.747 917.174 544.067 897.996 604.371C878.396 666.005 847.24 655.268 814.921 682.476Z" stroke="url(#paint18_linear_524_403)"/>
<path opacity="0.37037" d="M798.332 683.481C730.285 736.681 741.539 786.211 752.481 813.366C783.942 891.441 863.846 864.863 859.498 817.554C857.422 794.961 859.478 744.469 884.311 723.239C915.353 696.701 1056.28 626.513 1059.85 531.633C1062.32 465.906 1011.62 440.592 963.487 473.592C903.325 514.843 904.742 549.24 883.738 608.741C862.27 669.555 831.46 657.581 798.332 683.481Z" stroke="url(#paint19_linear_524_403)"/>
<path opacity="0.388889" d="M781.649 684.658C712.02 735.108 721.758 785.057 731.865 812.632C760.926 891.917 841.592 868.546 838.689 821.092C837.303 798.431 840.897 748.051 866.363 727.826C898.196 702.544 1041.18 638.028 1047.64 543.348C1052.11 477.76 1002.21 450.436 953.103 481.494C891.72 520.316 892.088 554.749 869.282 613.375C845.972 673.295 815.547 660.097 781.649 684.658Z" stroke="url(#paint20_linear_524_403)"/>
<path opacity="0.407407" d="M764.866 686.004C693.742 733.642 701.95 783.95 711.21 811.912C737.836 892.309 819.166 872.174 817.712 824.633C817.017 801.93 822.145 751.725 848.212 732.529C880.796 708.535 1025.66 649.769 1035 555.405C1041.47 490.036 992.434 460.735 942.411 489.812C879.881 526.159 879.199 560.586 854.619 618.265C829.497 677.217 799.492 662.812 764.866 686.004Z" stroke="url(#paint21_linear_524_403)"/>
<path opacity="0.425926" d="M747.978 687.514C675.445 732.282 682.114 782.887 690.516 811.202C714.674 892.614 796.568 875.74 796.565 828.17C796.563 805.453 803.219 755.484 829.855 737.341C863.151 714.662 1009.72 661.718 1021.93 567.785C1030.39 502.714 982.277 471.472 931.397 498.533C867.797 532.36 866.066 566.739 839.742 623.402C812.838 681.314 783.29 665.719 747.978 687.514Z" stroke="url(#paint22_linear_524_403)"/>
<path opacity="0.444444" d="M730.981 689.187C657.127 731.031 662.249 781.871 669.782 810.505C691.443 892.832 773.802 879.24 775.249 831.698C775.94 808.995 784.115 759.322 811.289 742.254C845.256 720.919 993.349 673.862 1008.42 580.473C1018.86 515.78 971.725 482.635 920.051 507.648C855.458 538.914 852.679 573.203 824.644 628.779C795.99 685.582 766.936 668.816 730.981 689.187Z" stroke="url(#paint23_linear_524_403)"/>
<path opacity="0.462963" d="M713.869 691.016C638.784 729.884 642.353 780.898 649.009 809.815C668.146 892.957 750.869 882.663 753.765 835.208C755.148 812.547 764.833 763.23 792.51 747.258C827.107 727.293 976.545 686.18 994.452 593.45C1006.86 529.213 960.765 494.206 908.36 517.139C842.853 545.806 839.03 579.963 809.317 634.386C778.949 690.009 750.424 672.093 713.869 691.016Z" stroke="url(#paint24_linear_524_403)"/>
<path opacity="0.481481" d="M696.639 692.996C620.414 728.842 622.425 779.967 628.195 809.133C644.785 892.988 727.772 886.004 732.113 838.694C734.186 816.102 745.369 767.202 773.517 752.345C808.702 733.774 959.302 698.655 980.026 606.697C994.382 542.995 949.386 506.168 896.313 526.994C829.972 553.027 825.11 587.011 793.756 640.213C761.709 694.59 733.748 675.545 696.639 692.996Z" stroke="url(#paint25_linear_524_403)"/>
<path opacity="0.5" d="M679.285 695.124C602.013 727.903 602.464 779.077 607.341 808.455C621.364 892.923 704.513 889.258 710.294 842.15C713.055 819.654 725.722 771.231 754.306 757.507C790.036 740.353 941.615 711.27 965.13 620.196C981.42 557.106 937.574 518.505 883.899 537.198C816.805 560.566 810.909 594.334 777.952 646.252C744.267 699.315 716.904 679.166 679.285 695.124Z" stroke="url(#paint26_linear_524_403)"/>
<path opacity="0.518519" d="M661.802 697.393C583.578 727.066 582.469 778.227 586.447 807.782C597.886 892.758 681.096 892.416 688.31 845.568C691.755 823.196 705.891 775.308 734.876 762.735C771.107 747.018 923.48 724.008 949.759 633.929C967.963 571.528 925.32 531.198 871.107 547.737C803.341 568.41 796.42 601.922 761.899 652.492C726.617 704.178 699.885 682.947 661.802 697.393Z" stroke="url(#paint27_linear_524_403)"/>
<path opacity="0.537037" d="M644.188 699.797C565.107 726.327 562.438 777.413 565.512 807.109C574.353 892.49 657.523 895.472 666.161 848.941C670.286 826.72 685.874 779.426 715.224 768.018C751.912 753.758 904.895 736.848 933.904 647.873C953.999 586.237 912.613 544.229 857.929 558.592C789.574 576.546 781.635 609.761 745.593 658.921C708.756 709.166 682.688 686.881 644.188 699.797Z" stroke="url(#paint28_linear_524_403)"/>
<path opacity="0.555556" d="M626.437 702.336C546.595 725.691 542.37 776.64 544.537 806.44C550.769 892.122 633.797 898.425 643.849 852.267C648.649 830.224 665.669 783.582 695.35 773.353C732.45 760.567 885.855 749.778 917.559 662.016C939.522 601.22 899.442 557.585 844.353 569.755C775.492 584.967 766.545 617.845 729.027 665.536C690.68 714.279 665.307 690.966 626.437 702.336Z" stroke="url(#paint29_linear_524_403)"/>
<path opacity="0.574074" d="M608.545 704.999C528.04 725.151 522.264 775.899 523.521 805.768C527.136 891.647 609.922 901.262 621.375 855.534C626.844 833.697 645.277 787.762 675.251 778.725C712.719 767.429 866.359 762.774 900.72 676.332C924.524 616.451 885.798 571.241 830.372 581.203C761.089 593.655 751.145 626.156 712.195 672.319C672.385 719.501 647.739 695.188 608.545 704.999Z" stroke="url(#paint30_linear_524_403)"/>
<path opacity="0.592593" d="M590.51 707.782C509.439 724.706 502.119 775.193 502.465 805.094C503.459 891.065 585.901 903.981 598.742 858.738C604.873 837.132 624.695 791.962 654.927 784.128C692.716 774.335 846.405 775.82 883.381 690.803C908.996 631.909 871.672 585.18 815.976 592.922C746.356 602.599 735.427 634.683 695.093 679.262C653.869 724.825 629.978 699.543 590.51 707.782Z" stroke="url(#paint31_linear_524_403)"/>
<path opacity="0.611111" d="M572.327 710.68C490.789 724.355 481.934 774.519 481.368 804.415C479.74 890.374 561.738 906.575 575.95 861.872C582.737 840.525 603.924 796.174 634.376 789.552C672.441 781.274 825.991 788.897 865.537 705.409C892.932 647.574 857.057 599.382 801.158 604.895C731.285 611.786 719.385 643.414 677.716 686.354C635.128 730.243 612.023 704.022 572.327 710.68Z" stroke="url(#paint32_linear_524_403)"/>
<path opacity="0.62963" d="M553.993 713.686C472.088 724.096 461.709 773.875 460.231 803.731C455.983 889.572 537.437 909.038 553.004 864.931C560.438 843.867 582.964 800.39 613.6 794.988C651.894 788.236 805.118 801.987 847.185 720.13C876.327 663.424 841.943 613.829 785.91 617.105C715.87 621.201 703.012 652.334 660.059 693.585C616.159 735.745 593.867 708.617 553.993 713.686Z" stroke="url(#paint33_linear_524_403)"/>
<path opacity="0.648148" d="M535.504 716.794C453.332 723.926 441.441 773.26 439.054 803.039C432.191 888.658 513.002 911.366 529.904 867.907C537.976 847.153 561.814 804.602 592.596 800.427C631.072 795.209 783.784 815.072 828.322 734.945C859.175 679.438 826.324 628.499 770.226 629.536C700.103 630.831 686.304 661.432 642.119 700.941C596.96 741.323 575.509 713.321 535.504 716.794Z" stroke="url(#paint34_linear_524_403)"/>
<path opacity="0.666667" d="M516.859 719.997C434.519 723.843 421.131 772.673 417.838 802.338C408.368 887.63 488.437 913.553 506.654 870.795C515.354 850.376 540.475 808.803 571.365 805.861C609.978 802.183 761.99 828.133 808.945 749.834C841.472 695.593 810.194 643.373 754.098 642.168C683.979 640.662 669.254 670.693 623.892 708.414C577.529 746.966 556.945 718.125 516.859 719.997Z" stroke="url(#paint35_linear_524_403)"/>
<path opacity="0.685185" d="M498.053 723.291C415.646 723.846 400.777 772.111 396.581 801.626C384.517 886.488 463.747 915.593 483.256 873.589C492.573 853.531 518.947 812.986 549.908 811.279C588.609 809.146 739.738 841.152 789.051 764.776C823.212 711.867 793.546 658.43 737.521 654.986C667.49 650.68 651.859 680.104 605.374 715.989C557.864 752.667 538.172 723.021 498.053 723.291Z" stroke="url(#paint36_linear_524_403)"/>
<path opacity="0.703704" d="M479.085 726.668C396.711 723.931 380.38 771.572 375.286 800.902C360.641 885.231 438.935 917.482 459.714 876.284C469.637 856.609 497.231 817.143 528.225 816.674C566.968 816.087 717.028 854.111 768.64 779.751C804.394 728.239 776.375 673.649 720.49 667.969C650.633 660.868 634.114 689.651 586.563 723.657C537.963 758.415 519.188 728.001 479.085 726.668Z" stroke="url(#paint37_linear_524_403)"/>
<path opacity="0.722222" d="M459.951 730.121C377.711 724.095 359.937 771.056 353.952 800.164C336.745 883.857 414.008 919.216 436.03 878.872C446.547 859.606 475.327 821.266 506.317 822.035C545.054 822.996 693.863 866.991 747.712 794.738C785.014 744.685 758.677 689.01 702.999 681.101C633.401 671.214 616.015 699.319 567.456 731.406C517.826 764.201 499.989 733.055 459.951 730.121Z" stroke="url(#paint38_linear_524_403)"/>
<path opacity="0.740741" d="M440.65 733.645C358.644 724.338 339.449 770.559 332.58 799.411C312.831 882.365 388.969 920.789 412.208 881.35C423.306 862.515 453.238 825.348 484.185 827.355C522.869 829.863 670.247 879.774 726.265 809.716C765.071 761.184 740.448 704.491 685.045 694.362C615.791 681.702 597.558 709.095 548.05 739.223C497.45 770.015 480.574 738.176 440.65 733.645Z" stroke="url(#paint39_linear_524_403)"/>
<path opacity="0.759259" d="M421.18 737.232C339.507 724.655 318.914 770.081 311.17 798.641C288.904 880.756 363.823 922.198 388.251 883.71C399.916 865.331 430.963 829.382 461.831 832.623C500.414 836.675 646.18 892.443 704.301 824.665C744.564 777.712 721.684 720.07 666.623 707.735C597.797 692.316 578.74 718.964 528.344 747.096C476.836 775.849 460.941 743.355 421.18 737.232Z" stroke="url(#paint40_linear_524_403)"/>
<path opacity="0.777778" d="M401.538 740.875C320.299 725.043 298.333 769.62 289.723 797.853C264.966 879.028 338.576 923.437 364.163 885.949C376.381 868.047 408.506 833.36 439.255 837.832C477.692 843.422 621.669 904.979 681.821 839.564C723.49 794.248 702.382 735.727 647.731 721.2C579.418 703.041 559.56 728.912 508.337 755.014C455.983 781.692 441.089 748.582 401.538 740.875Z" stroke="url(#paint41_linear_524_403)"/>
<path opacity="0.796296" d="M381.723 744.566C301.017 725.499 277.705 769.171 268.239 797.043C241.022 877.18 313.233 924.502 339.947 888.059C352.704 870.655 385.867 837.273 416.461 842.971C454.704 850.093 596.716 917.363 658.826 854.39C701.852 810.766 682.541 751.437 628.367 734.736C560.648 713.86 540.014 738.922 488.026 762.962C434.891 787.532 421.015 753.848 381.723 744.566Z" stroke="url(#paint42_linear_524_403)"/>
<path opacity="0.814815" d="M361.734 748.301C281.658 726.022 257.029 768.737 246.719 796.213C217.075 875.215 287.799 925.392 315.608 890.038C328.888 873.155 363.049 841.117 393.451 848.034C431.453 856.679 571.327 929.58 635.32 869.127C679.65 827.248 662.16 767.184 608.527 748.329C541.487 724.761 520.1 748.983 467.411 770.932C413.559 793.365 400.719 759.148 361.734 748.301Z" stroke="url(#paint43_linear_524_403)"/>
<path opacity="0.833333" d="M341.57 752.075C262.222 726.611 236.305 768.315 225.164 795.363C193.129 873.132 262.28 926.104 291.15 891.882C304.937 875.54 340.053 844.886 370.226 853.013C407.942 863.171 545.507 941.615 611.304 883.754C656.884 843.672 641.236 782.946 588.212 761.96C521.931 735.728 499.819 759.082 446.492 778.913C391.989 799.181 380.2 764.471 341.57 752.075Z" stroke="url(#paint44_linear_524_403)"/>
<path opacity="0.851852" d="M321.229 755.874C242.706 727.257 215.533 767.9 203.574 794.487C169.187 870.929 236.681 926.631 266.577 893.583C280.853 877.801 316.883 848.569 346.79 857.896C384.173 869.554 519.263 953.445 586.784 898.248C633.558 860.01 619.772 798.696 567.419 775.606C501.978 746.742 479.168 769.198 425.269 786.887C370.181 804.966 359.458 769.807 321.229 755.874Z" stroke="url(#paint45_linear_524_403)"/>
<path opacity="0.87037" d="M300.711 759.696C223.108 727.959 194.713 767.493 181.95 793.586C145.253 868.608 211.007 926.971 241.893 895.138C256.642 879.936 293.541 852.161 323.145 862.676C360.15 875.821 492.599 965.056 561.763 912.589C609.675 876.244 597.766 814.416 546.149 789.249C481.629 757.789 458.147 779.32 403.742 794.845C348.136 810.713 338.491 775.147 300.711 759.696Z" stroke="url(#paint46_linear_524_403)"/>
<path opacity="0.888889" d="M280.015 763.532C203.428 728.714 173.844 767.09 160.293 792.657C121.331 866.168 185.265 927.122 217.103 896.542C232.306 881.938 270.03 855.654 299.295 867.345C335.877 881.96 465.525 976.432 536.246 926.759C585.237 892.35 575.221 830.084 524.403 802.87C460.881 768.852 436.757 789.433 381.912 802.775C325.856 816.412 317.301 780.482 280.015 763.532Z" stroke="url(#paint47_linear_524_403)"/>
<path opacity="0.907407" d="M259.141 767.374C183.662 729.519 152.926 766.689 138.604 791.7C97.424 863.609 159.461 927.08 192.211 897.79C207.851 883.803 246.353 859.041 275.244 871.895C311.357 887.961 438.046 987.554 510.238 940.737C560.249 908.305 552.137 845.677 502.18 816.45C439.734 779.916 414.998 799.52 359.779 810.664C303.342 822.053 295.888 785.803 259.141 767.374Z" stroke="url(#paint48_linear_524_403)"/>
<path opacity="0.925926" d="M238.089 771.218C163.81 730.371 131.959 766.291 116.883 790.714C73.5358 860.935 133.599 926.845 167.223 898.881C183.28 885.527 222.514 862.318 250.995 876.318C286.596 893.817 410.171 998.409 483.747 954.504C534.716 924.09 528.519 861.176 479.484 829.971C418.19 790.965 392.87 809.569 337.345 818.5C280.595 827.629 274.251 791.104 238.089 771.218Z" stroke="url(#paint49_linear_524_403)"/>
<path opacity="0.944444" d="M216.859 775.055C143.87 731.266 110.944 765.892 95.1322 789.698C49.6699 858.145 107.687 926.414 142.143 899.81C158.597 887.105 198.515 865.478 226.552 880.607C261.598 899.518 381.908 1008.98 456.778 968.043C508.643 939.682 504.369 876.56 456.315 843.415C396.247 801.985 370.376 819.566 314.613 826.274C257.619 833.13 252.392 796.374 216.859 775.055Z" stroke="url(#paint50_linear_524_403)"/>
<path opacity="0.962963" d="M195.45 778.878C123.842 732.2 89.8797 765.49 73.3516 788.65C25.8299 855.239 81.7301 925.784 116.976 900.572C133.808 888.533 174.361 868.513 201.919 884.752C236.367 905.051 353.266 1019.25 429.339 981.331C482.037 955.06 479.69 891.805 432.676 856.761C373.909 812.956 347.517 829.493 291.583 833.97C234.415 838.545 230.313 801.603 195.45 778.878Z" stroke="url(#paint51_linear_524_403)"/>
<path opacity="0.981481" d="M173.865 782.68C103.723 733.17 68.7668 765.083 51.5426 787.568C2.01935 852.219 55.7343 924.954 91.7276 901.165C108.916 889.805 150.055 871.418 177.101 888.748C210.91 910.411 324.254 1029.21 401.437 994.351C454.905 970.201 454.488 906.891 408.571 869.991C351.175 823.865 324.296 839.338 268.259 841.578C210.986 843.867 208.013 806.783 173.865 782.68Z" stroke="url(#paint52_linear_524_403)"/>
<path d="M152.103 786.453C83.5138 734.172 47.6054 764.669 29.706 786.453C-21.7584 849.086 29.706 923.922 66.4027 901.586C83.9271 890.919 125.601 874.186 152.103 892.586C185.23 915.586 294.883 1038.84 373.082 1007.09C427.254 985.086 428.767 921.798 384.004 883.086C328.05 834.696 300.715 849.086 244.644 849.086C187.336 849.086 185.495 811.906 152.103 786.453Z" stroke="url(#paint53_linear_524_403)"/>
<line x1="0.11395" y1="313.513" x2="1333.11" y2="625.513" stroke="url(#paint54_linear_524_403)"/>
<line x1="108.227" y1="0.554619" x2="1333.23" y2="625.555" stroke="url(#paint55_linear_524_403)"/>
<defs>
<linearGradient id="paint0_linear_524_403" x1="1063.18" y1="639.264" x2="1281.02" y2="584.689" gradientUnits="userSpaceOnUse">
<stop stop-color="#335353"/>
<stop offset="1" stop-color="#436060" stop-opacity="0.3"/>
</linearGradient>
<linearGradient id="paint1_linear_524_403" x1="1049.09" y1="635.156" x2="1268.05" y2="587.457" gradientUnits="userSpaceOnUse">
<stop stop-color="#335353"/>
<stop offset="1" stop-color="#436060" stop-opacity="0.3"/>
</linearGradient>
<linearGradient id="paint2_linear_524_403" x1="1035.05" y1="631.323" x2="1254.98" y2="590.48" gradientUnits="userSpaceOnUse">
<stop stop-color="#335353"/>
<stop offset="1" stop-color="#436060" stop-opacity="0.3"/>
</linearGradient>
<linearGradient id="paint3_linear_524_403" x1="1021.07" y1="627.77" x2="1241.8" y2="593.764" gradientUnits="userSpaceOnUse">
<stop stop-color="#335353"/>
<stop offset="1" stop-color="#436060" stop-opacity="0.3"/>
</linearGradient>
<linearGradient id="paint4_linear_524_403" x1="1007.13" y1="624.496" x2="1228.52" y2="597.311" gradientUnits="userSpaceOnUse">
<stop stop-color="#335353"/>
<stop offset="1" stop-color="#436060" stop-opacity="0.3"/>
</linearGradient>
<linearGradient id="paint5_linear_524_403" x1="993.225" y1="621.502" x2="1215.12" y2="601.125" gradientUnits="userSpaceOnUse">
<stop stop-color="#335353"/>
<stop offset="1" stop-color="#436060" stop-opacity="0.3"/>
</linearGradient>
<linearGradient id="paint6_linear_524_403" x1="979.346" y1="618.793" x2="1201.6" y2="605.214" gradientUnits="userSpaceOnUse">
<stop stop-color="#335353"/>
<stop offset="1" stop-color="#436060" stop-opacity="0.3"/>
</linearGradient>
<linearGradient id="paint7_linear_524_403" x1="965.484" y1="616.367" x2="1187.95" y2="609.579" gradientUnits="userSpaceOnUse">
<stop stop-color="#335353"/>
<stop offset="1" stop-color="#436060" stop-opacity="0.3"/>
</linearGradient>
<linearGradient id="paint8_linear_524_403" x1="951.63" y1="614.224" x2="1174.17" y2="614.224" gradientUnits="userSpaceOnUse">
<stop stop-color="#335353"/>
<stop offset="1" stop-color="#436060" stop-opacity="0.3"/>
</linearGradient>
<linearGradient id="paint9_linear_524_403" x1="937.776" y1="612.367" x2="1160.24" y2="619.154" gradientUnits="userSpaceOnUse">
<stop stop-color="#335353"/>
<stop offset="1" stop-color="#436060" stop-opacity="0.3"/>
</linearGradient>
<linearGradient id="paint10_linear_524_403" x1="923.914" y1="610.793" x2="1146.16" y2="624.372" gradientUnits="userSpaceOnUse">
<stop stop-color="#335353"/>
<stop offset="1" stop-color="#436060" stop-opacity="0.3"/>
</linearGradient>
<linearGradient id="paint11_linear_524_403" x1="910.034" y1="609.503" x2="1131.92" y2="629.88" gradientUnits="userSpaceOnUse">
<stop stop-color="#335353"/>
<stop offset="1" stop-color="#436060" stop-opacity="0.3"/>
</linearGradient>
<linearGradient id="paint12_linear_524_403" x1="896.128" y1="608.496" x2="1117.51" y2="635.68" gradientUnits="userSpaceOnUse">
<stop stop-color="#335353"/>
<stop offset="1" stop-color="#436060" stop-opacity="0.3"/>
</linearGradient>
<linearGradient id="paint13_linear_524_403" x1="882.188" y1="607.77" x2="1102.92" y2="641.776" gradientUnits="userSpaceOnUse">
<stop stop-color="#335353"/>
<stop offset="1" stop-color="#436060" stop-opacity="0.3"/>
</linearGradient>
<linearGradient id="paint14_linear_524_403" x1="868.205" y1="607.324" x2="1088.13" y2="648.167" gradientUnits="userSpaceOnUse">
<stop stop-color="#335353"/>
<stop offset="1" stop-color="#436060" stop-opacity="0.3"/>
</linearGradient>
<linearGradient id="paint15_linear_524_403" x1="854.17" y1="607.156" x2="1073.13" y2="654.855" gradientUnits="userSpaceOnUse">
<stop stop-color="#335353"/>
<stop offset="1" stop-color="#436060" stop-opacity="0.3"/>
</linearGradient>
<linearGradient id="paint16_linear_524_403" x1="840.074" y1="607.264" x2="1057.91" y2="661.84" gradientUnits="userSpaceOnUse">
<stop stop-color="#335353"/>
<stop offset="1" stop-color="#436060" stop-opacity="0.3"/>
</linearGradient>
<linearGradient id="paint17_linear_524_403" x1="825.911" y1="607.646" x2="1042.45" y2="669.119" gradientUnits="userSpaceOnUse">
<stop stop-color="#335353"/>
<stop offset="1" stop-color="#436060" stop-opacity="0.3"/>
</linearGradient>
<linearGradient id="paint18_linear_524_403" x1="811.67" y1="608.297" x2="1026.74" y2="676.691" gradientUnits="userSpaceOnUse">
<stop stop-color="#335353"/>
<stop offset="1" stop-color="#436060" stop-opacity="0.3"/>
</linearGradient>
<linearGradient id="paint19_linear_524_403" x1="797.345" y1="609.217" x2="1010.76" y2="684.556" gradientUnits="userSpaceOnUse">
<stop stop-color="#335353"/>
<stop offset="1" stop-color="#436060" stop-opacity="0.3"/>
</linearGradient>
<linearGradient id="paint20_linear_524_403" x1="782.927" y1="610.4" x2="994.505" y2="692.706" gradientUnits="userSpaceOnUse">
<stop stop-color="#335353"/>
<stop offset="1" stop-color="#436060" stop-opacity="0.3"/>
</linearGradient>
<linearGradient id="paint21_linear_524_403" x1="768.407" y1="611.842" x2="977.948" y2="701.137" gradientUnits="userSpaceOnUse">
<stop stop-color="#335353"/>
<stop offset="1" stop-color="#436060" stop-opacity="0.3"/>
</linearGradient>
<linearGradient id="paint22_linear_524_403" x1="753.779" y1="613.539" x2="961.076" y2="709.843" gradientUnits="userSpaceOnUse">
<stop stop-color="#335353"/>
<stop offset="1" stop-color="#436060" stop-opacity="0.3"/>
</linearGradient>
<linearGradient id="paint23_linear_524_403" x1="739.034" y1="615.489" x2="943.872" y2="718.819" gradientUnits="userSpaceOnUse">
<stop stop-color="#335353"/>
<stop offset="1" stop-color="#436060" stop-opacity="0.3"/>
</linearGradient>
<linearGradient id="paint24_linear_524_403" x1="724.165" y1="617.684" x2="926.317" y2="728.053" gradientUnits="userSpaceOnUse">
<stop stop-color="#335353"/>
<stop offset="1" stop-color="#436060" stop-opacity="0.3"/>
</linearGradient>
<linearGradient id="paint25_linear_524_403" x1="709.164" y1="620.12" x2="908.394" y2="737.535" gradientUnits="userSpaceOnUse">
<stop stop-color="#335353"/>
<stop offset="1" stop-color="#436060" stop-opacity="0.3"/>
</linearGradient>
<linearGradient id="paint26_linear_524_403" x1="694.024" y1="622.793" x2="890.086" y2="747.253" gradientUnits="userSpaceOnUse">
<stop stop-color="#335353"/>
<stop offset="1" stop-color="#436060" stop-opacity="0.3"/>
</linearGradient>
<linearGradient id="paint27_linear_524_403" x1="678.739" y1="625.695" x2="871.375" y2="757.194" gradientUnits="userSpaceOnUse">
<stop stop-color="#335353"/>
<stop offset="1" stop-color="#436060" stop-opacity="0.3"/>
</linearGradient>
<linearGradient id="paint28_linear_524_403" x1="663.3" y1="628.819" x2="852.243" y2="767.341" gradientUnits="userSpaceOnUse">
<stop stop-color="#335353"/>
<stop offset="1" stop-color="#436060" stop-opacity="0.3"/>
</linearGradient>
<linearGradient id="paint29_linear_524_403" x1="647.702" y1="632.165" x2="832.672" y2="777.683" gradientUnits="userSpaceOnUse">
<stop stop-color="#335353"/>
<stop offset="1" stop-color="#436060" stop-opacity="0.3"/>
</linearGradient>
<linearGradient id="paint30_linear_524_403" x1="631.937" y1="635.72" x2="812.648" y2="788.195" gradientUnits="userSpaceOnUse">
<stop stop-color="#335353"/>
<stop offset="1" stop-color="#436060" stop-opacity="0.3"/>
</linearGradient>
<linearGradient id="paint31_linear_524_403" x1="616" y1="639.479" x2="792.152" y2="798.857" gradientUnits="userSpaceOnUse">
<stop stop-color="#335353"/>
<stop offset="1" stop-color="#436060" stop-opacity="0.3"/>
</linearGradient>
<linearGradient id="paint32_linear_524_403" x1="599.884" y1="643.437" x2="771.171" y2="809.649" gradientUnits="userSpaceOnUse">
<stop stop-color="#335353"/>
<stop offset="1" stop-color="#436060" stop-opacity="0.3"/>
</linearGradient>
<linearGradient id="paint33_linear_524_403" x1="583.584" y1="647.584" x2="749.689" y2="820.545" gradientUnits="userSpaceOnUse">
<stop stop-color="#335353"/>
<stop offset="1" stop-color="#436060" stop-opacity="0.3"/>
</linearGradient>
<linearGradient id="paint34_linear_524_403" x1="567.093" y1="651.914" x2="727.695" y2="831.519" gradientUnits="userSpaceOnUse">
<stop stop-color="#335353"/>
<stop offset="1" stop-color="#436060" stop-opacity="0.3"/>
</linearGradient>
<linearGradient id="paint35_linear_524_403" x1="550.407" y1="656.42" x2="705.176" y2="842.544" gradientUnits="userSpaceOnUse">
<stop stop-color="#335353"/>
<stop offset="1" stop-color="#436060" stop-opacity="0.3"/>
</linearGradient>
<linearGradient id="paint36_linear_524_403" x1="533.519" y1="661.092" x2="682.125" y2="853.589" gradientUnits="userSpaceOnUse">
<stop stop-color="#335353"/>
<stop offset="1" stop-color="#436060" stop-opacity="0.3"/>
</linearGradient>
<linearGradient id="paint37_linear_524_403" x1="516.426" y1="665.923" x2="658.532" y2="864.625" gradientUnits="userSpaceOnUse">
<stop stop-color="#335353"/>
<stop offset="1" stop-color="#436060" stop-opacity="0.3"/>
</linearGradient>
<linearGradient id="paint38_linear_524_403" x1="499.122" y1="670.905" x2="634.393" y2="875.617" gradientUnits="userSpaceOnUse">
<stop stop-color="#335353"/>
<stop offset="1" stop-color="#436060" stop-opacity="0.3"/>
</linearGradient>
<linearGradient id="paint39_linear_524_403" x1="481.603" y1="676.029" x2="609.705" y2="886.534" gradientUnits="userSpaceOnUse">
<stop stop-color="#335353"/>
<stop offset="1" stop-color="#436060" stop-opacity="0.3"/>
</linearGradient>
<linearGradient id="paint40_linear_524_403" x1="463.864" y1="681.287" x2="584.468" y2="897.339" gradientUnits="userSpaceOnUse">
<stop stop-color="#335353"/>
<stop offset="1" stop-color="#436060" stop-opacity="0.3"/>
</linearGradient>
<linearGradient id="paint41_linear_524_403" x1="445.902" y1="686.669" x2="558.685" y2="907.998" gradientUnits="userSpaceOnUse">
<stop stop-color="#335353"/>
<stop offset="1" stop-color="#436060" stop-opacity="0.3"/>
</linearGradient>
<linearGradient id="paint42_linear_524_403" x1="427.713" y1="692.165" x2="532.361" y2="918.473" gradientUnits="userSpaceOnUse">
<stop stop-color="#335353"/>
<stop offset="1" stop-color="#436060" stop-opacity="0.3"/>
</linearGradient>
<linearGradient id="paint43_linear_524_403" x1="409.294" y1="697.77" x2="505.507" y2="928.732" gradientUnits="userSpaceOnUse">
<stop stop-color="#335353"/>
<stop offset="1" stop-color="#436060" stop-opacity="0.3"/>
</linearGradient>
<linearGradient id="paint44_linear_524_403" x1="390.642" y1="703.473" x2="478.132" y2="938.741" gradientUnits="userSpaceOnUse">
<stop stop-color="#335353"/>
<stop offset="1" stop-color="#436060" stop-opacity="0.3"/>
</linearGradient>
<linearGradient id="paint45_linear_524_403" x1="371.753" y1="709.263" x2="450.254" y2="948.46" gradientUnits="userSpaceOnUse">
<stop stop-color="#335353"/>
<stop offset="1" stop-color="#436060" stop-opacity="0.3"/>
</linearGradient>
<linearGradient id="paint46_linear_524_403" x1="352.626" y1="715.131" x2="421.89" y2="957.859" gradientUnits="userSpaceOnUse">
<stop stop-color="#335353"/>
<stop offset="1" stop-color="#436060" stop-opacity="0.3"/>
</linearGradient>
<linearGradient id="paint47_linear_524_403" x1="333.257" y1="721.067" x2="393.063" y2="966.904" gradientUnits="userSpaceOnUse">
<stop stop-color="#335353"/>
<stop offset="1" stop-color="#436060" stop-opacity="0.3"/>
</linearGradient>
<linearGradient id="paint48_linear_524_403" x1="313.645" y1="727.062" x2="363.796" y2="975.567" gradientUnits="userSpaceOnUse">
<stop stop-color="#335353"/>
<stop offset="1" stop-color="#436060" stop-opacity="0.3"/>
</linearGradient>
<linearGradient id="paint49_linear_524_403" x1="293.789" y1="733.107" x2="334.117" y2="983.82" gradientUnits="userSpaceOnUse">
<stop stop-color="#335353"/>
<stop offset="1" stop-color="#436060" stop-opacity="0.3"/>
</linearGradient>
<linearGradient id="paint50_linear_524_403" x1="273.687" y1="739.193" x2="304.055" y2="991.639" gradientUnits="userSpaceOnUse">
<stop stop-color="#335353"/>
<stop offset="1" stop-color="#436060" stop-opacity="0.3"/>
</linearGradient>
<linearGradient id="paint51_linear_524_403" x1="253.338" y1="745.307" x2="273.641" y2="999.001" gradientUnits="userSpaceOnUse">
<stop stop-color="#335353"/>
<stop offset="1" stop-color="#436060" stop-opacity="0.3"/>
</linearGradient>
<linearGradient id="paint52_linear_524_403" x1="232.741" y1="751.442" x2="242.91" y2="1005.89" gradientUnits="userSpaceOnUse">
<stop stop-color="#335353"/>
<stop offset="1" stop-color="#436060" stop-opacity="0.3"/>
</linearGradient>
<linearGradient id="paint53_linear_524_403" x1="211.895" y1="757.586" x2="211.895" y2="1012.28" gradientUnits="userSpaceOnUse">
<stop stop-color="#335353"/>
<stop offset="1" stop-color="#436060" stop-opacity="0.3"/>
</linearGradient>
<linearGradient id="paint54_linear_524_403" x1="0" y1="314" x2="1269.92" y2="615.612" gradientUnits="userSpaceOnUse">
<stop stop-color="#107D7D"/>
<stop offset="1" stop-color="#107D7D" stop-opacity="0"/>
</linearGradient>
<linearGradient id="paint55_linear_524_403" x1="108" y1="1" x2="1273.97" y2="600.71" gradientUnits="userSpaceOnUse">
<stop stop-color="#107D7D"/>
<stop offset="1" stop-color="#107D7D" stop-opacity="0"/>
</linearGradient>
</defs>
</svg>
